<?xml version="1.0" encoding="UTF-8"?>
<svg id="_图层_2" data-name="图层 2" xmlns="http://www.w3.org/2000/svg" viewBox="0 0 249.36 366.82">
  <defs>
    <style>
      .cls-1 {
        fill: #373635;
      }
    </style>
  </defs>
  <g id="_图层_1-2" data-name="图层 1">
    <path class="cls-1" d="M51.57,182.57c.55.16,1,.3,1.45.43,1.13.32,2.25.68,3.38.94.33.08.76-.06,1.04-.24.57-.38,1.06-.87,1.61-1.28.54-.41,1.12-.77,1.68-1.15.27-.18.62-.28.8-.51,1.12-1.47,2.74-1.36,4.4-1.01.8.17,1.57.55,2.34.89.95.42,1.2.73,1.09,1.68-.4,3.48-.03,7.02.2,10.54.08,1.2.1,1.09,1.31,1.5,2.24.76,4.4.3,6.6.4,2.01.09,4.01-.02,6.03.52.28.07.59.1.86.04,1.18-.26,2.37.07,3.57.19,1.52.16,3.04-.05,4.56-.11.38-.01.77-.12,1.14-.04,1.78.42,3.42-.03,5.09-.29.51-.08,1.03-.08,1.55-.11.65-.04,1.31-.08,1.96-.13.28-.02.56-.15.84-.1,1.83.29,3.49-.25,5.2-.54.23-.04.46-.15.69-.13,2.46.11,4.76-.61,7.17-.73.19,0,.42.02.55-.08,1.76-1.27,4.06-.84,6.04-1.4,1.16-.33,2.36-.68,3.36-1.29,1.15-.71,2.54-.58,3.75-1.05.49-.19.8.27.88.77.19,1.11-.49,1.69-1.23,2.17-.85.55-1.75,1.01-2.61,1.55-.42.27-.89.54-1.17.94-.78,1.09-1.91,1.66-3.06,2.27-1.58.84-3.05,1.88-4.6,2.78-1.71.99-3.35,2.08-5.29,2.66-.69.21-1.25.76-1.83,1.19-1.77,1.29-3.79,2.02-6.04,2.29-.41.05-.87.1-1.2.31-1.38.88-3,1.22-4.58,1.62-.45.12-.88.29-1.34.4-.68.16-1.36.3-2.05.41-.51.08-1.08.02-1.55.18-1.62.58-3.39.68-4.98,1.4-1.19.54-2.62.65-4.07.44-.7-.1-1.44-.06-2.11.08-1.03.21-2.03.26-3.13.06-.83-.15-1.72-.01-2.52.18-.85.21-1.66.19-2.55.08-1.59-.19-3.18-.2-4.78-.27-.57-.02-.87.28-.92.82-.01.14-.05.29-.02.42.47,2.27-.12,4.42-.05,6.64.02.47.13.95.21,1.43.32,1.72.56,3.43.26,5.13-.12.64-.05,1.32-.08,1.98-.02.52.03,1.07-.11,1.55-.67,2.43-.26,4.96.06,7.49.09.73.47,1.11,1.14,1.42.95.43,1.89.69,2.87.54,1.07-.16,2.12-.09,3.15.47.13.07.28.11.43.15,2.21.57,4.43,1.1,6.63,1.72,1.63.46,3.23,1.11,4.86,1.54,2.93.78,5.59,2.36,8.38,3.57.36.16.74.4,1,.7.65.71,1.4,1.2,2.29,1.5.23.08.47.22.67.37.76.55.79,1.13.11,1.64-.04.03-.07.06-.11.08-1.38.41-2.76.81-4.14,1.21-.58.17-1.2.26-1.75.48-1,.4-2.04.54-3.18.6-1.61.09-3.27.06-4.79.63-.71.26-1.6.17-2.41.22-.72.05-1.47-.02-2.14.14-1.16.29-2.28.58-3.56.22-.27-.08-.62-.05-.84.07-1.42.75-2.99.42-4.56.11-.47-.09-.95-.12-1.4-.17-.4.63.04,1.07.38,1.49.95,1.19,1.93,2.37,2.9,3.56.03.04.08.08.09.12.62,2.39,2.94,3.75,4.11,5.82.05.09.13.16.18.25,1.15,2.04,2.43,3.99,4.16,5.67.35.34.52.87.78,1.31.4.65.8,1.29,1.21,1.93.27.43.56.85.83,1.28.19.3,2.35,2.21,3.21,3.28.5.61.31,1.85-.37,2.04-.44.13-2.22.56-2.7.58-.44.01-3.57.72-5.39,1.19-1.73.46-3.52.76-5.29,1.12-.79.16-1.59.3-2.38.45-.23.05-.46.14-.69.15-3.62.18-6.96,1.11-10.3,2.14-1.66.51-3.33,1.14-5.3.99-1.3-.1-2.37.73-3.55,1.34.72.9,1.49,1.34,2.4,1.56.49.12.99.24,1.48.32,1.93.3,3.84.88,5.64,1.62,1.72.71,3.44,1.19,5.17,1.75,1.49.49,2.87,1.49,4.36,1.92,1.97.57,3.84,1.39,5.75,2.09,1.42.52,2.96.6,4.31,1.54.19.13.5.18.73.16,1.58-.12,2.94.69,4.29,1.5.87.52,1.71,1,2.71,1.01.28,0,.62.1.87.27,1.84,1.26,3.85,1.65,5.89,2.08.87.19,1.72.69,2.59,1.01,1.45.54,2.9,1.03,4.22,1.98.55.4,1.36.6,2.01.6,1.15,0,2.18.36,3.18,1,.78.5,1.58.7,2.44.89.97.22,1.94.66,2.86,1.14,1.22.64,2.42,1.09,3.75,1.37,1.46.3,2.95.95,4.32,1.69,2.03,1.09,4.11,1.78,6.26,2.24.55.12,1.17.1,1.62.4,1.81,1.19,3.83,1.65,5.75,2.44,1.44.59,2.94.97,4.41,1.44,1.77.57,3.54,1.08,5.29,1.72,1.8.66,3.56,1.59,5.45,1.6.14,0,.31.03.45.09,1.82.82,3.75,1.13,5.55,1.85,2.55,1.02,5.13,1.67,7.69,2.49,1.67.54,3.38.81,5.07,1.25,1.24.32,2.52.6,3.7,1.14,1.61.74,3.2,1.28,4.87,1.4.64.05,1.3.21,1.94.42,1.87.62,3.73,1.43,5.61,1.89,2.57.63,5.17,1,7.75,1.48.2.04.43-.04.59.05,2.16,1.22,4.5.44,6.65,1.78.34.21.81.25,1.19.24,2.3-.08,4.57.71,6.85,1.45.3.1.6.19.9.23,1.88.2,3.76.34,5.65.59.84.11,1.72.29,2.52.65,1.7.75,3.37.94,5.06.95.53,0,1.11,0,1.62.21,2.31.87,4.58,1.05,6.86,1.1,1.78.04,3.57.21,5.36.32.1,0,.21.01.3.06,1.3.73,2.55.57,3.83.61,1.78.06,3.57.24,5.36.42,1.05.1,2.54,2.14,2.29,3.12-.06.24-.33.42-.55.56-.57.38-1.14.76-1.75,1.07-.61.31-1.28.53-1.93.78-.65.25-1.31.48-1.96.72-.13.05-.24.19-.37.18-2.06-.21-3.33,1.34-5.18,1.57-.62.08-1.24.16-1.84.31-.63.16-1.34.26-1.82.64-1.54,1.2-3.44,1.61-5.42,1.78-1.68.14-3.14.7-4.55,1.41-.61.31-1.25.64-1.95.72-1.25.15-2.53.11-3.5.93-.24.2-.75.09-1.13.14-.86.11-1.78.1-2.56.37-1.76.61-3.44,1.39-5.18,2.05-.65.24-1.36.38-2.07.47-1.44.18-2.8.57-4.19.8-1.91.32-3.67.87-5.4,1.53-.69.26-1.42.46-2.12.7-1.82.62-3.71,1.08-5.76,1.09-.3,0-.62-.06-.89,0-1.93.46-3.86.92-5.77,1.43-.58.16-1.06.01-1.57-.38-.74-.57-1.49-1.12-2.22-1.69-1.18-.94-2.45-1.61-3.84-1.96-.15-.04-.31-.06-.45-.14-2.01-1.13-4.02-2.26-6.03-3.39-.37-.21-.7-.6-1.08-.71-2.28-.66-4.12-2.27-6.13-3.51-.76-.47-1.63-.72-2.44-1.09-1.69-.78-3.39-1.51-5.04-2.36-1.65-.85-3.07-2.24-4.92-2.62-.18-.04-.41-.18-.54-.33-1.31-1.5-3.12-1.78-4.72-2.55-.71-.34-1.38-.76-2.07-1.16-.41-.24-.79-.57-1.21-.78-1.61-.81-3.26-1.55-4.85-2.4-1.51-.8-2.99-1.59-4.63-1.95-.67-.15-1.35-.56-1.98-.95-1.73-1.06-3.4-2.16-5.36-2.69-1.32-.36-2.58-1.17-3.87-1.75-.9-.4-1.83-.73-2.73-1.14-.8-.36-1.66-.68-2.35-1.21-.71-.55-1.4-.95-2.22-1.13-1.11-.24-2.19-.56-3.09-1.44-.15-.14-.35-.24-.55-.32-1.4-.56-2.88-.95-4.18-1.7-1.99-1.14-3.99-2.03-6.16-2.49-.61-.13-1.18-.7-1.8-.97-.91-.38-1.84-.71-2.77-.99-1.89-.57-3.72-1.26-5.36-2.53-.94-.73-1.97-1.15-3.1-1.43-1.28-.32-2.59-.74-3.8-1.31-3.17-1.5-6.35-2.91-9.66-3.97-1.95-.62-3.85-1.51-5.78-2.26-.43-.17-.88-.27-1.31-.44-.66-.26-1.31-.55-1.97-.83-.66-.28-1.32-.71-1.98-.82-2.23-.37-4.31-1.24-6.35-2.32-.72-.38-1.54-.59-2.33-.74-1.36-.25-2.61-.77-3.89-1.39-1.55-.75-3.19-1.3-4.89-1.66-1.9-.4-3.86-1-5.63-1.88-1.32-.66-2.56-1.28-3.99-1.44-.48-.05-.97-.3-1.45-.47-.34-.12-.67-.33-1.01-.37-2.58-.32-4.97-1.4-7.42-2.31-3.06-1.14-6.17-2.12-9.28-3.04-1.15-.34-2.38-.36-3.57-.53-1.39-.2-2.78-.41-4.17-.62-.6-.09-.92-.48-.96-1-.16-2.1.12-4.04,1.67-5.52.64-.62,1.28-1.28,1.73-2.03,1.18-1.97,2.54-3.75,4.5-5.11,1.13-.78,2.09-1.76,3.65-1.81.56-.02,1.15.13,1.72.27.72.18,1.43.42,2.15.63.14.04.31.01.44.07,3.21,1.33,5.83.04,8.58-.71,1.14-.31,2.29-.59,3.44-.85,1.99-.45,3.98-.88,5.97-1.32.46-.1.91-.25,1.35-.4.27-.09.49-.32.76-.33,1.82-.08,3.23-.93,4.71-1.7.47-.25,1.09-.32,1.66-.35,2.98-.16,5.76-.81,8.36-2.02.95-.44,2.06-.61,3.1-.89.52-.14,1.05-.27,1.64-.41-.7-1.77-1.05-3.45-2.35-4.82-.31-.32-.58-.76-.68-1.16-.35-1.38-1.29-2.45-2.05-3.64-1.11-1.73-2-3.59-2.85-5.44-.4-.87-.96-1.52-1.72-2.06-.24-.17-.55-.32-.82-.34-1.5-.15-3.01-.21-4.51-.41-1.66-.22-3.31-.55-4.97-.82-1.37-.22-2.73-.44-4.1-.63-.8-.11-1.06-.35-1.05-1.11,0-.19.03-.37.08-.55.88-3.19.45-6.57.38-9.89-.02-1.03-.07-2.06-.08-3.09,0-.66.49-.9,1.05-.85,1.94.2,3.9.4,5.83.77.77.15,1.5.35,2.3.33.96-.02,1.94.16,2.92.24,1.49.13,1.77-.16,1.75-1.6-.02-.89.12-1.77.1-2.66-.06-1.88-.17-3.77-.29-5.66-.14-2.36-.54-4.75,0-7.03.21-.87.25-1.71,0-2.64-.19-.72-.09-1.5-.06-2.24.06-1.21.19-2.41.26-3.62.03-.57-.3-.84-.87-.99-3.34-.91-6.72-1.21-10.1-1.53-.24-.02-.52-.04-.71.05-1.24.59-2.45-.03-3.67-.39-.65-.19-.82-.56-.79-1.18.05-.93-.06-1.87-.04-2.8.01-.55.04-1.12.23-1.62.35-.94.37-1.88.13-2.89-.12-.54-.26-1.17-.1-1.65.37-1.1.27-2.18.01-3.32-.56-2.46-.27-2.76,2.26-2.43,1.24.16,2.49.41,3.73.52,1.15.1,2.29.01,3.44.11,1.54.13,3.07.35,4.61.53,1.22.14,1.66-.14,1.82-1.35.1-.73.12-1.51,0-2.25-.33-2.1-.08-4.12.3-6.39ZM79.64,1.9c-.4,1.47-.88,2.88-1.69,4.19-.61.98-1.26,2.07-1.45,3.2-.34,1.99-1.13,3.68-2.27,5.24-.03.04-.04.08-.07.12-.91,1.44-1.18,3.23-2.48,4.49-.76.74-1.17,1.87-1.72,2.84-.25.44-.54.89-.67,1.38-.25.97-.84,1.63-1.5,2.3-.81.82-1.51,1.74-2.24,2.64-.32.39-.56.86-.86,1.27-.98,1.29-1.95,2.59-2.97,3.85-.37.46-.83.84-1.27,1.23-.24.21-.58.31-.79.54-1.05,1.11-2.1,2.21-3.09,3.37-1.57,1.85-3.27,3.5-5.47,4.56-.4.19-.74.54-1.05.87-1.15,1.23-2.47,2.16-4.1,2.69-.81.26-1.54.78-2.27,1.24-1.54.98-3.05,2-4.6,2.97-.26.17-.61.19-.91.3-1.16.43-2.41.72-3.46,1.34-1.43.84-2.8,1.58-4.49,1.93-1.47.3-2.83,1.17-4.31,1.66-1.19.4-2.36.93-3.61,1.24-1.78.44-2.76,1.43-1.98,3.91.28.89.66,1.75.96,2.63.35,1.04.92,1.92,1.63,2.76.62.74,1.19,1.58,1.57,2.46.69,1.59,1.67,2.96,2.91,4.12,1.27,1.2,2.67,2.18,4.49,1.15.04-.02.09-.04.13-.04,2.25-.08,4.53-.42,6.76-.16,2.23.27,4.42.5,6.66.42,1.52-.06,3.06.08,4.59.22.35.03.92.37.97.63.25,1.34.71,2.8.44,4.04-.39,1.75-.23,3.49-.07,5.18.33,3.5.47,6.96-.13,10.39-.02.14,0,.28-.01.42-.03,1.17-.12,2.34-.09,3.51.04,1.41-.56,1.69-1.83,1.58-.51-.04-1.02-.22-1.53-.27-1.17-.11-2.35-.33-3.5-.23-1.09.09-2.13.04-3.2-.2-.59-.13-1.21-.15-1.81-.1-.56.04-.91.38-.91,1.02,0,1.03-.13,2.06-.04,3.08.31,3.38.3,6.72-.35,10.02-.24,1.23.3,1.74,1.59,1.71.19,0,.38-.02.56-.05,1.63-.35,3.25-.19,4.89.21.5.12,1.06.22,1.53.11,1.4-.34,2.7.16,4.03.54.5.14.9.46.9,1,0,1.26.05,2.55-.16,3.77-.21,1.23-.19,2.41,0,3.64.13.88.12,1.79.04,2.67-.18,1.82-.35,3.63.05,5.48.19.9.24,1.76-.07,2.64-.17.49-.1,1.1-.08,1.65.05,1.6.19,3.21.17,4.8-.01,1.11-.38,1.38-1.48,1.4-.37,0-.76-.08-1.13-.12-.75-.09-1.5-.21-2.25-.25-1.23-.07-2.46,0-3.69-.13-2.02-.24-4.03-.6-6.04-.9-1.18-.18-1.67.21-1.7,1.38-.01.46,0,.95.11,1.4.79,3.18.54,6.33.46,9.49-.02.93,0,1.87-.1,2.79-.13,1.24.1,1.62,1.35,1.79.52.07,1.04,0,1.57,0,1.28.02,2.56.04,3.84.07.43,0,.86.05,1.28.08,2.13.13,4.27.22,6.4.42,1.12.1,1.22.51,1.11,1.67-.14,1.52-.19,3.08-.06,4.63.1,1.23.25,2.44.05,3.66-.36,2.2.03,2.88,2.12,4.04.13.07.25.19.39.21,1.5.31,3.07,1.7,4.44.05.1-.12.36-.11.51-.21.46-.29,1-.52,1.32-.93.67-.84,1.38-1.57,2.54-1.76.26-.04.51-.23.71-.41.92-.77,1.83-.65,2.87.07.64.44,1.39.75,2.12,1,.61.21,1.04-.09,1.06-.74.03-.9.04-1.8,0-2.7-.1-1.76-.27-3.51-.38-5.27-.02-.37-.01-.8.16-1.1.15-.27.52-.52.82-.55.93-.08,1.87-.07,2.81-.03.61.03,1.26.06,1.83.28.85.33,1.66.42,2.53.3,1.89-.27,3.78-.13,5.66.59.44.17.97.28,1.4.2,1.85-.35,3.68.05,5.52.46.94.21,1.89.4,2.83.62.51.12,1.03.28,1.52.48,1.47.6,2.96.93,4.51.97.59.01,1.2.27,1.8.43.98.26,1.96.72,2.92.74,1.82.05,3.51.5,5.13,1.47.86.51,1.77.81,2.77.76.53-.03,1.11.25,1.65.44,2.45.85,4.9,1.72,7.35,2.6.73.26,1.49.49,2.15.9.91.56,1.76,1.14,2.83,1.12.26,0,.65.1.81.29.98,1.18,2.44.98,3.59,1.66.2.12.74-.02.83-.2.14-.28.09-.73-.03-1.06-.09-.24-.42-.42-.64-.63-1.63-1.59-3.24-3.21-4.91-4.74-1-.92-2.03-1.88-3.19-2.49-1.57-.83-2.86-2.02-4.18-3.15-1.5-1.28-2.92-2.59-4.75-3.31-.48-.19-.91-.59-1.34-.92-.47-.37-.88-.97-1.39-1.11-2.35-.69-4.12-2.57-6.31-3.48-2.48-1.03-4.79-2.53-7.37-3.28-.18-.05-.37-.15-.52-.28-1.33-1.08-2.92-1.41-4.46-1.65-1.65-.25-3.17-.8-4.69-1.48-.61-.28-1.27-.42-1.91-.6-.88-.24-1.81-.32-2.62-.71-1.36-.64-2.76-1.06-4.17-1.01-2.22.08-4.43-.75-6.66-.41-1.25.19-1.78-.56-1.8-1.86-.01-.7-.11-1.41-.17-2.12-.06-.75-.2-1.5-.18-2.24.04-1.8.31-3.59.17-5.38-.11-1.43-.19-2.8-.05-4.23.17-1.7-.37-3.5.15-5.2-.65-1.97.07-3.87,0-5.81-.03-.89.24-1.01,1.12-1,.84,0,1.67-.08,2.51-.1.7-.02,1.41-.09,2.09.04.74.15,1.37.04,2.05-.14.83-.21,1.74-.35,2.6-.27.87.09,1.66.04,2.46-.26,1.7-.64,3.47-.95,5.32-.97.66,0,1.31-.32,1.95-.53.3-.1.55-.34.86-.43,2.73-.82,5.47-1.64,8.21-2.43.94-.27,1.61-.72,1.48-1.21-.22-.83-.93-1.02-1.63-1.27-.61-.22-1.28-.46-1.76-.89-.88-.78-1.82-1.29-2.94-1.41-1.63-.19-3.12-.77-4.53-1.7-.98-.65-2.02-1.12-3.21-.96-.35.04-.77-.04-1.09-.2-2.69-1.31-5.52-1.7-8.39-1.93-.46-.04-.94-.13-1.37-.3-1.17-.47-2.27-.74-3.56-.5-.76.14-1.78-.28-2.51-.75-.69-.44-.24-1.32-.23-2.01.03-1.75.05-3.5.08-5.25.02-.95.09-1.89.07-2.84-.06-3.07-.54-6.16.02-9.21.03-.18-.02-.38-.03-.57-.06-1.37-.15-2.75-.18-4.12-.02-.86.26-1.07,1.08-1.04.78.03,1.56-.02,2.34,0,.97.01,1.96-.06,2.92.1,2.02.33,4.09.04,6.09.76.37.13.82,0,1.23-.06,2.07-.28,4.12-.31,6.23.09,1.45.27,2.98.28,4.42.1,1.11-.14,2.18-.2,3.3-.07.95.11,1.92-.02,2.88-.08.77-.05,1.54-.21,2.31-.19.95.03,1.84.04,2.65-.52.79-.54,1.71-.58,2.66-.52.73.05,1.47-.02,2.19-.13.82-.11,1.63-.31,2.43-.49.45-.1.91-.18,1.31-.38,1.63-.83,3.26-1.66,5.17-1.68.26,0,.56-.13.75-.3.76-.7,1.71-.82,2.67-.98,1.28-.21,2.52-.5,3.42-1.59.22-.27.6-.48.94-.52,1.07-.1,1.87-.69,2.67-1.32.4-.31.81-.69,1.28-.78,2.15-.41,3.58-2.16,5.5-2.99,1.74-.75,3.52-1.49,4.88-2.94.14-.15.44-.14.63-.26,1.16-.72,2.41-1.33,3.44-2.22,1.52-1.32,2.83-2.93,4.83-3.52.17-.05.32-.18.46-.3,2.18-1.69,4.37-3.37,6.52-5.09.38-.3.7-.75.92-1.21.11-.23.01-.74-.16-.94-.17-.19-.58-.24-.86-.2-.3.05-.57.28-.85.42-1.7.86-3.4,1.73-5.11,2.58-.24.12-.54.13-.78.25-.73.35-1.49.66-2.16,1.11-.73.48-1.39,1.09-2.32,1.08-1.01-.02-1.85.41-2.7.88-.54.29-1.17.53-1.78.56-1.5.08-2.91.49-4.16,1.24-1.57.94-3.32,1.46-5.04,1.62-2.02.18-3.92.82-5.93.98-.91.07-1.79.38-2.69.53-.57.09-1.16.12-1.75.13-.41,0-.84-.14-1.24-.09-1.86.21-3.79.09-5.56.85-.41.18-.9.2-1.35.21-1.33.04-2.66.07-4,.06-3.04-.02-6.09-.06-9.13-.08-.46,0-.95-.08-1.38.05-1.18.35-2.38.2-3.57.06-1.28-.15-2.55-.54-3.85-.3-.25.05-.54-.11-.82-.14-.46-.05-.92-.07-1.37-.09-.59-.03-1.19-.06-1.78-.07-.5-.01-1.01-.03-1.51,0-.6.03-1.19.15-1.78.16-2.07.04-4.14-.06-6.19-.57-.38-.09-.81.05-1.21.1-.32.05-.63.2-.94.19-1.52-.07-3.06,0-4.55-.3-1.85-.38-3.68-.35-5.52-.44-1.1-.06-2.2-.21-3.29-.3-.32-.03-.64.03-.96.02-.3,0-.61-.05-1.14-.1.23-.56.32-1.04.59-1.36,1.15-1.38,2.38-2.69,3.52-4.08.93-1.13,1.93-2.25,2.64-3.53.52-.94,1.04-1.84,1.74-2.66.62-.72,1.2-1.55,1.56-2.44.34-.84.69-1.62,1.3-2.28.57-.63.9-1.37,1-2.27.07-.64.23-1.39.63-1.83,1.14-1.29,1.69-2.88,2.37-4.43.24-.56.61-1.09.71-1.68.31-1.93.75-3.79,1.84-5.43.15-.22.22-.54.22-.81-.02-.96.4-1.73.84-2.52.69-1.23,1.36-2.47,1.13-4.02-.04-.27,0-.61.14-.83.69-1.13.87-2.38.89-3.69,0-.37.13-.76.28-1.09.55-1.21,1.04-2.42.94-3.83-.02-.36.17-.73.29-1.09.44-1.34.91-2.68,1.32-4.03.31-1,.14-1.34-.63-1.94-.39-.31-.73-.71-1.07-1.08-.31-.33-.59-.67-1.15-1.31-.32.87-.54,1.38-.68,1.9ZM123.65,248.75c-.54.64-.88,1.47-1.24,2.26-.27.58-.43,1.21-.65,1.81-.16.43-.38.84-.53,1.28-.72,2.05-.72,4.29-.84,6.5-.03.61.09,1.26.71,1.57,1.14.57,2.31,1.06,3.49,1.54.89.36,1.89.5,2.68,1.01,2.27,1.47,4.81,1.92,7.21,2.91,1.67.7,3.35,1.23,4.71,2.59.18.18.42.4.63.44,1.47.29,2.52,1.32,3.64,2.28.46.4,1.06.67,1.62.91,1.78.78,3.34,1.87,4.7,3.35,1.46,1.6,2.99,3.13,4.85,4.3.63.39,1.14,1.08,1.6,1.7.78,1.07,1.46,2.2,2.22,3.29.32.46.65,1.03,1.33.9.57-.11,1.09-1.02.97-1.69-.05-.25-.14-.5-.25-.73-.73-1.5-1.49-3-2.22-4.5-.18-.37-.42-.76-.47-1.14-.12-.95-.65-1.7-1.17-2.51-.95-1.49-2.33-2.78-2.63-4.59-.05-.3-.41-.59-.63-.88-.5-.67-1.08-1.31-1.47-2.03-1.23-2.23-2.79-4.28-4.74-5.83-1.47-1.17-2.72-2.46-3.86-3.87-1.66-2.04-4.03-3.09-5.86-4.86-.07-.07-.19-.08-.27-.14-.87-.56-1.73-1.12-2.6-1.68-.43-.28-.86-.68-1.31-.79-2.36-.55-4.35-1.99-6.41-3.26-.47-.29-.99-.49-1.64-.81-.51.2-1.21.28-1.54.67ZM116.62,104.22c.06.43.21.87.39,1.26.81,1.72,1.42,3.48,1.67,5.35.09.63.31,1.24.5,1.86.85,2.81,2.14,3.53,4.85,2.93,1.82-.4,3.11-1.93,5.01-2.13.2-.02.35-.29.53-.43.29-.22.57-.48.9-.62,1.11-.49,2.08-1.14,2.74-2.23.18-.3.5-.58.83-.7,2.45-.89,3.83-3.1,5.55-4.88,1.36-1.41,2.1-3.36,3.59-4.75,1.03-.96,1.61-2.51,2.25-3.88,1.04-2.23,1.91-4.56,3.4-6.51.19-.25.28-.6.38-.92.4-1.28.79-2.56,1.18-3.85.12-.41.35-.84.3-1.25-.05-.38-.34-.85-.65-1.06-.16-.11-.71.14-.87.39-.54.81-1.02,1.67-1.45,2.56-.86,1.78-2.23,3.14-3.61,4.35-2.34,2.05-5.02,3.67-7.46,5.6-1.88,1.49-4.13,2.23-6.35,2.73-2.58.58-4.96,1.58-7.42,2.42-1.14.39-2.26.78-3.51.67-2.16-.14-3.06.87-2.74,3.11Z"/>
  </g>
</svg>